<svg viewBox="-6.4 -6.4 76.80 76.80" xmlns="http://www.w3.org/2000/svg" fill="#919191"
     transform="matrix(-1, 0, 0, -1, 0, 0)rotate(0)" stroke="#919191">
    <g id="SVGRepo_bgCarrier" stroke-width="0">
        <path transform="translate(-6.4, -6.4), scale(2.4)"
              d="M16,29.954907957660524C18.113598122598827,30.585939302452832,19.394640274188546,27.198920763692296,21.424120122163004,26.334797434167367C23.690373952721902,25.369859148347135,27.464175173444097,26.863772610972827,28.50399693180993,24.630885907444508C29.641801876106197,22.187592611369745,26.15509458216241,19.831089356442323,25.689020118929022,17.176460038320748C25.389505012264497,15.470506062949623,26.786196914531498,13.755899832720349,26.302664576443004,12.09271471276903C25.812420584208922,10.406443808422546,24.072948100915553,9.474633098987908,23.03753564475432,8.056264395020818C21.708987663244862,6.23634145756851,21.408094411958903,3.3761854430430005,19.320512109663536,2.5281527971023667C17.299689184585368,1.707239623884126,14.870481679301905,2.807538420226793,13.04114652463839,3.995459555823322C11.366724006010768,5.082784584660038,11.069454083534918,7.426888069056316,9.636273306360987,8.816837474308596C8.290004047127624,10.122497015647632,6.201814819870305,10.400450441137204,4.9746476954143315,11.818635409644793C3.5089141682725704,13.512521445706568,1.5867338267161233,15.49536707196496,1.9437717171009616,17.70673511473442C2.304604243120402,19.9416058058286,4.726699859360239,21.296612476515143,6.687574092563075,22.427903490934746C8.290497841588834,23.35268143098178,10.606251960450003,22.371443242570916,12.045469877299187,23.53472763230918C14.029051037119897,25.13800742196744,13.556086768842063,29.22525843899182,16,29.954907957660524"
              fill="#f5ec00" strokewidth="0"></path>
    </g>
    <g id="SVGRepo_tracerCarrier" stroke-linecap="round" stroke-linejoin="round" stroke="#CCCCCC"
       stroke-width="0.128"></g>
    <g id="SVGRepo_iconCarrier">
        <title>sword</title>
        <g id="sword">
            <circle cx="53.5" cy="17.5" r="2.5"
                    style="fill:none;stroke:#3a88fe;stroke-linecap:round;stroke-linejoin:round;stroke-width:2px"></circle>
            <circle cx="5" cy="29" r="1"></circle>
            <circle cx="26" cy="60" r="1"></circle>
            <line x1="48" y1="28.463" x2="48" y2="29.878"
                  style="fill:none;stroke:#3a88fe;stroke-linecap:round;stroke-linejoin:round;stroke-width:2px"></line>
            <line x1="48" y1="34.122" x2="48" y2="35.537"
                  style="fill:none;stroke:#3a88fe;stroke-linecap:round;stroke-linejoin:round;stroke-width:2px"></line>
            <line x1="44.463" y1="32" x2="45.878" y2="32"
                  style="fill:none;stroke:#3a88fe;stroke-linecap:round;stroke-linejoin:round;stroke-width:2px"></line>
            <line x1="50.122" y1="32" x2="51.537" y2="32"
                  style="fill:none;stroke:#3a88fe;stroke-linecap:round;stroke-linejoin:round;stroke-width:2px"></line>
            <line x1="11" y1="45.463" x2="11" y2="46.878"
                  style="fill:none;stroke:#3a88fe;stroke-linecap:round;stroke-linejoin:round;stroke-width:2px"></line>
            <line x1="11" y1="51.122" x2="11" y2="52.537"
                  style="fill:none;stroke:#3a88fe;stroke-linecap:round;stroke-linejoin:round;stroke-width:2px"></line>
            <line x1="7.463" y1="49" x2="8.878" y2="49"
                  style="fill:none;stroke:#3a88fe;stroke-linecap:round;stroke-linejoin:round;stroke-width:2px"></line>
            <line x1="13.122" y1="49" x2="14.537" y2="49"
                  style="fill:none;stroke:#3a88fe;stroke-linecap:round;stroke-linejoin:round;stroke-width:2px"></line>
            <path d="M41.157,45.535C37.178,43.365,12.1,28.754,7.678,3.067c0,0-7.952,25.99,21.014,41.177"
                  style="fill:none;stroke:#3a88fe;stroke-linecap:round;stroke-linejoin:round;stroke-width:2px"></path>
            <path d="M31.038,45.411a74.309,74.309,0,0,0,7.86,3.152"
                  style="fill:#ffce56;stroke:#3a88fe;stroke-linecap:round;stroke-linejoin:round;stroke-width:2px"></path>
            <polyline points="46.795 49 59.08 56.666 57 60 44.5 52.199"
                      style="fill:none;stroke:#3a88fe;stroke-linecap:round;stroke-linejoin:round;stroke-width:2px"></polyline>
            <rect x="39.408" y="45.387" width="7" height="7" transform="translate(-9.92 10.937) rotate(-13.034)"
                  style="fill:none;stroke:#3a88fe;stroke-linecap:round;stroke-linejoin:round;stroke-width:2px"></rect>
            <polyline points="51 43 48 41 38 57 42 59"
                      style="fill:none;stroke:#3a88fe;stroke-linecap:round;stroke-linejoin:round;stroke-width:2px"></polyline>
            <line x1="51" y1="52" x2="49" y2="55"
                  style="fill:none;stroke:#3a88fe;stroke-linecap:round;stroke-linejoin:round;stroke-width:2px"></line>
            <line x1="54.86" y1="54.211" x2="52.869" y2="57.196"
                  style="fill:none;stroke:#3a88fe;stroke-linecap:round;stroke-linejoin:round;stroke-width:2px"></line>
            <path d="M19,11.729S23.926,2.58,38,6.8"
                  style="fill:none;stroke:#3a88fe;stroke-linecap:round;stroke-linejoin:round;stroke-width:2px"></path>
            <path d="M28.09,24.1S30.55,9.545,51.418,8.813"
                  style="fill:none;stroke:#3a88fe;stroke-linecap:round;stroke-linejoin:round;stroke-width:2px"></path>
            <path d="M23,17a17.438,17.438,0,0,1,8.132-6.832"
                  style="fill:none;stroke:#3a88fe;stroke-linecap:round;stroke-linejoin:round;stroke-width:2px"></path>
        </g>
    </g>
</svg>